<svg xmlns="http://www.w3.org/2000/svg" viewBox="0 0 1200 680" role="img" aria-labelledby="title desc">
<title id="title">Verifier reward versus deterministic random-reward control</title>
<desc id="desc">Actual 400-step main and 200-step control monitoring curves, with the experimental differences disclosed.</desc>
<metadata>{&quot;facts&quot;:{&quot;control_final&quot;:0.4,&quot;control_steps&quot;:200,&quot;main_final&quot;:0.8,&quot;main_steps&quot;:400},&quot;sources&quot;:[{&quot;path&quot;:&quot;data/demo-artifacts/jobs/d4-m3-1p5b-r1-v0125/metrics.jsonl&quot;,&quot;sha256&quot;:&quot;be3fdb965dc72a2333761a8f50181053af3c4b5355e83624c3784b6be30cd433&quot;},{&quot;path&quot;:&quot;data/demo-artifacts/jobs/d4-m4-0p5b-random-v0126/metrics.jsonl&quot;,&quot;sha256&quot;:&quot;b9acd2c38c702dc6b32b481425010f8c0afc780b52937ce62a09e6c11f76c14f&quot;}]}</metadata>
<defs>
<filter id="shadow" x="-15%" y="-15%" width="130%" height="140%"><feDropShadow dx="0" dy="10" stdDeviation="14" flood-color="#304d5b" flood-opacity=".10"/></filter>
<linearGradient id="accent" x1="0" x2="1"><stop stop-color="#087cf0"/><stop offset="1" stop-color="#00a67e"/></linearGradient>
<style>text{font-family:Manrope,Inter,Arial,sans-serif;fill:#17212b}.mono{font-family:"IBM Plex Mono",Menlo,monospace}.label{font-size:13px;letter-spacing:.09em;text-transform:uppercase;font-weight:700}.small{font-size:13px}.tiny{font-size:11px}.body{font-size:16px}.heading{font-size:26px;font-weight:750;letter-spacing:-.03em}.hero{font-size:34px;font-weight:780;letter-spacing:-.04em}.muted{fill:#62717d}.soft{fill:#82909a}.blue{fill:#087cf0}.green{fill:#00a67e}.amber{fill:#a96900}.coral{fill:#dd6b5b}.white{fill:#fff}.stroke{stroke:#d6e2e6;stroke-width:1.5}.arrow{stroke:#82909a;stroke-width:2;fill:none;marker-end:url(#arrow)}</style>
<marker id="arrow" viewBox="0 0 10 10" refX="9" refY="5" markerWidth="6" markerHeight="6" orient="auto-start-reverse"><path d="M 0 0 L 10 5 L 0 10 z" fill="#82909a"/></marker>
</defs>
<rect width="1200" height="680" rx="28" fill="#edf5f7"/>
<text x="48" y="48" class="label blue" text-anchor="start">FIGURE 1 · FALSIFICATION REFERENCE</text>
<text x="48" y="84" class="heading" text-anchor="start">Did the verifier carry the signal?</text>
<text x="48" y="111" class="small muted" text-anchor="start">Same frozen 50-row pool and GRPO skeleton; model size, duration, and reward differ.</text>
<rect x="44" y="140" width="410" height="490" rx="18" fill="#ffffff" stroke="#d6e2e6" filter="url(#shadow)"/>
<text x="70" y="178" class="heading" text-anchor="start">Design ledger</text>
<rect x="70" y="198" width="80" height="28" rx="14" fill="#00a67e"/>
<text x="110.0" y="217" class="tiny mono" text-anchor="middle" fill="#ffffff">SHARED</text>
<text x="70" y="248" class="small" text-anchor="start"><tspan x="70" dy="0">Frozen 50-row training pool</tspan><tspan x="70" dy="20">k = 8 rollouts · batch = 4</tspan><tspan x="70" dy="20">LoRA 16/32 · LR 1e-6 · KL 0.001</tspan></text>
<rect x="70" y="322" width="156" height="198" rx="18" fill="#eaf4ff" stroke="#c8e1f8"/>
<text x="90" y="354" class="label blue" text-anchor="start">M3</text>
<text x="90" y="386" class="hero" text-anchor="start">1.5B</text>
<text x="90" y="421" class="small" text-anchor="start"><tspan x="90" dy="0">400 steps</tspan><tspan x="90" dy="20">SQL verifier</tspan><tspan x="90" dy="20">final monitor 0.80</tspan></text>
<rect x="242" y="322" width="168" height="198" rx="18" fill="#fff4e3" stroke="#f0d7aa"/>
<text x="262" y="354" class="label amber" text-anchor="start">M4</text>
<text x="262" y="386" class="hero" text-anchor="start">0.5B</text>
<text x="262" y="421" class="small" text-anchor="start"><tspan x="262" dy="0">200 steps</tspan><tspan x="262" dy="20">Bernoulli(0.5)</tspan><tspan x="262" dy="20">final monitor 0.40</tspan></text>
<rect x="70" y="540" width="340" height="62" rx="18" fill="#fff0ee" stroke="#f2c9c3"/>
<text x="86" y="565" class="small coral" text-anchor="start"><tspan x="86" dy="0">Falsification reference, not a</tspan><tspan x="86" dy="18">single-variable causal estimate.</tspan></text>
<rect x="488" y="140" width="668" height="490" rx="18" fill="#ffffff" stroke="#d6e2e6" filter="url(#shadow)"/>
<text x="520" y="174" class="body" text-anchor="start">Training-pool monitoring pass@1</text>
<line x1="520" y1="500.83" x2="1140" y2="500.83" stroke="#d6e2e6" stroke-width="1"/>
<text x="508" y="504.8333333333333" class="tiny mono muted" text-anchor="end">0.4</text>
<line x1="520" y1="436.67" x2="1140" y2="436.67" stroke="#d6e2e6" stroke-width="1"/>
<text x="508" y="440.66666666666663" class="tiny mono muted" text-anchor="end">0.5</text>
<line x1="520" y1="372.50" x2="1140" y2="372.50" stroke="#d6e2e6" stroke-width="1"/>
<text x="508" y="376.5" class="tiny mono muted" text-anchor="end">0.6</text>
<line x1="520" y1="308.33" x2="1140" y2="308.33" stroke="#d6e2e6" stroke-width="1"/>
<text x="508" y="312.33333333333337" class="tiny mono muted" text-anchor="end">0.7</text>
<line x1="520" y1="244.17" x2="1140" y2="244.17" stroke="#d6e2e6" stroke-width="1"/>
<text x="508" y="248.16666666666663" class="tiny mono muted" text-anchor="end">0.8</text>
<text x="520.0" y="591" class="tiny mono muted" text-anchor="middle">0</text>
<text x="675.0" y="591" class="tiny mono muted" text-anchor="middle">100</text>
<text x="830.0" y="591" class="tiny mono muted" text-anchor="middle">200</text>
<text x="985.0" y="591" class="tiny mono muted" text-anchor="middle">300</text>
<text x="1140.0" y="591" class="tiny mono muted" text-anchor="middle">400</text>
<polyline points="521.55,372.50 523.10,372.50 524.65,372.50 526.20,372.50 527.75,372.50 529.30,372.50 530.85,372.50 532.40,372.50 533.95,372.50 535.50,372.50 537.05,372.50 538.60,372.50 540.15,372.50 541.70,372.50 543.25,372.50 544.80,372.50 546.35,372.50 547.90,372.50 549.45,372.50 551.00,372.50 552.55,372.50 554.10,372.50 555.65,372.50 557.20,372.50 558.75,372.50 560.30,372.50 561.85,372.50 563.40,372.50 564.95,372.50 566.50,372.50 568.05,372.50 569.60,372.50 571.15,372.50 572.70,372.50 574.25,372.50 575.80,372.50 577.35,372.50 578.90,372.50 580.45,372.50 582.00,372.50 583.55,372.50 585.10,372.50 586.65,372.50 588.20,372.50 589.75,372.50 591.30,372.50 592.85,372.50 594.40,372.50 595.95,372.50 597.50,436.67 599.05,436.67 600.60,436.67 602.15,436.67 603.70,436.67 605.25,436.67 606.80,436.67 608.35,436.67 609.90,436.67 611.45,436.67 613.00,436.67 614.55,436.67 616.10,436.67 617.65,436.67 619.20,436.67 620.75,436.67 622.30,436.67 623.85,436.67 625.40,436.67 626.95,436.67 628.50,436.67 630.05,436.67 631.60,436.67 633.15,436.67 634.70,436.67 636.25,436.67 637.80,436.67 639.35,436.67 640.90,436.67 642.45,436.67 644.00,436.67 645.55,436.67 647.10,436.67 648.65,436.67 650.20,436.67 651.75,436.67 653.30,436.67 654.85,436.67 656.40,436.67 657.95,436.67 659.50,436.67 661.05,436.67 662.60,436.67 664.15,436.67 665.70,436.67 667.25,436.67 668.80,436.67 670.35,436.67 671.90,436.67 673.45,436.67 675.00,372.50 676.55,372.50 678.10,372.50 679.65,372.50 681.20,372.50 682.75,372.50 684.30,372.50 685.85,372.50 687.40,372.50 688.95,372.50 690.50,372.50 692.05,372.50 693.60,372.50 695.15,372.50 696.70,372.50 698.25,372.50 699.80,372.50 701.35,372.50 702.90,372.50 704.45,372.50 706.00,372.50 707.55,372.50 709.10,372.50 710.65,372.50 712.20,372.50 713.75,372.50 715.30,372.50 716.85,372.50 718.40,372.50 719.95,372.50 721.50,372.50 723.05,372.50 724.60,372.50 726.15,372.50 727.70,372.50 729.25,372.50 730.80,372.50 732.35,372.50 733.90,372.50 735.45,372.50 737.00,372.50 738.55,372.50 740.10,372.50 741.65,372.50 743.20,372.50 744.75,372.50 746.30,372.50 747.85,372.50 749.40,372.50 750.95,372.50 752.50,372.50 754.05,436.67 755.60,436.67 757.15,436.67 758.70,436.67 760.25,436.67 761.80,436.67 763.35,436.67 764.90,436.67 766.45,436.67 768.00,436.67 769.55,436.67 771.10,436.67 772.65,436.67 774.20,436.67 775.75,436.67 777.30,436.67 778.85,436.67 780.40,436.67 781.95,436.67 783.50,436.67 785.05,436.67 786.60,436.67 788.15,436.67 789.70,436.67 791.25,436.67 792.80,436.67 794.35,436.67 795.90,436.67 797.45,436.67 799.00,436.67 800.55,436.67 802.10,436.67 803.65,436.67 805.20,436.67 806.75,436.67 808.30,436.67 809.85,436.67 811.40,436.67 812.95,436.67 814.50,436.67 816.05,436.67 817.60,436.67 819.15,436.67 820.70,436.67 822.25,436.67 823.80,436.67 825.35,436.67 826.90,436.67 828.45,436.67 830.00,308.33 831.55,308.33 833.10,308.33 834.65,308.33 836.20,308.33 837.75,308.33 839.30,308.33 840.85,308.33 842.40,308.33 843.95,308.33 845.50,308.33 847.05,308.33 848.60,308.33 850.15,308.33 851.70,308.33 853.25,308.33 854.80,308.33 856.35,308.33 857.90,308.33 859.45,308.33 861.00,308.33 862.55,308.33 864.10,308.33 865.65,308.33 867.20,308.33 868.75,308.33 870.30,308.33 871.85,308.33 873.40,308.33 874.95,308.33 876.50,308.33 878.05,308.33 879.60,308.33 881.15,308.33 882.70,308.33 884.25,308.33 885.80,308.33 887.35,308.33 888.90,308.33 890.45,308.33 892.00,308.33 893.55,308.33 895.10,308.33 896.65,308.33 898.20,308.33 899.75,308.33 901.30,308.33 902.85,308.33 904.40,308.33 905.95,308.33 907.50,244.17 909.05,244.17 910.60,244.17 912.15,244.17 913.70,244.17 915.25,244.17 916.80,244.17 918.35,244.17 919.90,244.17 921.45,244.17 923.00,244.17 924.55,244.17 926.10,244.17 927.65,244.17 929.20,244.17 930.75,244.17 932.30,244.17 933.85,244.17 935.40,244.17 936.95,244.17 938.50,244.17 940.05,244.17 941.60,244.17 943.15,244.17 944.70,244.17 946.25,244.17 947.80,244.17 949.35,244.17 950.90,244.17 952.45,244.17 954.00,244.17 955.55,244.17 957.10,244.17 958.65,244.17 960.20,244.17 961.75,244.17 963.30,244.17 964.85,244.17 966.40,244.17 967.95,244.17 969.50,244.17 971.05,244.17 972.60,244.17 974.15,244.17 975.70,244.17 977.25,244.17 978.80,244.17 980.35,244.17 981.90,244.17 983.45,244.17 985.00,244.17 986.55,244.17 988.10,244.17 989.65,244.17 991.20,244.17 992.75,244.17 994.30,244.17 995.85,244.17 997.40,244.17 998.95,244.17 1000.50,244.17 1002.05,244.17 1003.60,244.17 1005.15,244.17 1006.70,244.17 1008.25,244.17 1009.80,244.17 1011.35,244.17 1012.90,244.17 1014.45,244.17 1016.00,244.17 1017.55,244.17 1019.10,244.17 1020.65,244.17 1022.20,244.17 1023.75,244.17 1025.30,244.17 1026.85,244.17 1028.40,244.17 1029.95,244.17 1031.50,244.17 1033.05,244.17 1034.60,244.17 1036.15,244.17 1037.70,244.17 1039.25,244.17 1040.80,244.17 1042.35,244.17 1043.90,244.17 1045.45,244.17 1047.00,244.17 1048.55,244.17 1050.10,244.17 1051.65,244.17 1053.20,244.17 1054.75,244.17 1056.30,244.17 1057.85,244.17 1059.40,244.17 1060.95,244.17 1062.50,244.17 1064.05,244.17 1065.60,244.17 1067.15,244.17 1068.70,244.17 1070.25,244.17 1071.80,244.17 1073.35,244.17 1074.90,244.17 1076.45,244.17 1078.00,244.17 1079.55,244.17 1081.10,244.17 1082.65,244.17 1084.20,244.17 1085.75,244.17 1087.30,244.17 1088.85,244.17 1090.40,244.17 1091.95,244.17 1093.50,244.17 1095.05,244.17 1096.60,244.17 1098.15,244.17 1099.70,244.17 1101.25,244.17 1102.80,244.17 1104.35,244.17 1105.90,244.17 1107.45,244.17 1109.00,244.17 1110.55,244.17 1112.10,244.17 1113.65,244.17 1115.20,244.17 1116.75,244.17 1118.30,244.17 1119.85,244.17 1121.40,244.17 1122.95,244.17 1124.50,244.17 1126.05,244.17 1127.60,244.17 1129.15,244.17 1130.70,244.17 1132.25,244.17 1133.80,244.17 1135.35,244.17 1136.90,244.17 1138.45,244.17 1140.00,244.17" fill="none" stroke="#087cf0" stroke-width="3.5" stroke-linecap="round" stroke-linejoin="round" opacity="0.86"/>
<polyline points="521.55,500.83 523.10,500.83 524.65,500.83 526.20,500.83 527.75,500.83 529.30,500.83 530.85,500.83 532.40,500.83 533.95,500.83 535.50,500.83 537.05,500.83 538.60,500.83 540.15,500.83 541.70,500.83 543.25,500.83 544.80,500.83 546.35,500.83 547.90,500.83 549.45,500.83 551.00,500.83 552.55,500.83 554.10,500.83 555.65,500.83 557.20,500.83 558.75,500.83 560.30,500.83 561.85,500.83 563.40,500.83 564.95,500.83 566.50,500.83 568.05,500.83 569.60,500.83 571.15,500.83 572.70,500.83 574.25,500.83 575.80,500.83 577.35,500.83 578.90,500.83 580.45,500.83 582.00,500.83 583.55,500.83 585.10,500.83 586.65,500.83 588.20,500.83 589.75,500.83 591.30,500.83 592.85,500.83 594.40,500.83 595.95,500.83 597.50,500.83 599.05,500.83 600.60,500.83 602.15,500.83 603.70,500.83 605.25,500.83 606.80,500.83 608.35,500.83 609.90,500.83 611.45,500.83 613.00,500.83 614.55,500.83 616.10,500.83 617.65,500.83 619.20,500.83 620.75,500.83 622.30,500.83 623.85,500.83 625.40,500.83 626.95,500.83 628.50,500.83 630.05,500.83 631.60,500.83 633.15,500.83 634.70,500.83 636.25,500.83 637.80,500.83 639.35,500.83 640.90,500.83 642.45,500.83 644.00,500.83 645.55,500.83 647.10,500.83 648.65,500.83 650.20,500.83 651.75,500.83 653.30,500.83 654.85,500.83 656.40,500.83 657.95,500.83 659.50,500.83 661.05,500.83 662.60,500.83 664.15,500.83 665.70,500.83 667.25,500.83 668.80,500.83 670.35,500.83 671.90,500.83 673.45,500.83 675.00,436.67 676.55,436.67 678.10,436.67 679.65,436.67 681.20,436.67 682.75,436.67 684.30,436.67 685.85,436.67 687.40,436.67 688.95,436.67 690.50,436.67 692.05,436.67 693.60,436.67 695.15,436.67 696.70,436.67 698.25,436.67 699.80,436.67 701.35,436.67 702.90,436.67 704.45,436.67 706.00,436.67 707.55,436.67 709.10,436.67 710.65,436.67 712.20,436.67 713.75,436.67 715.30,436.67 716.85,436.67 718.40,436.67 719.95,436.67 721.50,436.67 723.05,436.67 724.60,436.67 726.15,436.67 727.70,436.67 729.25,436.67 730.80,436.67 732.35,436.67 733.90,436.67 735.45,436.67 737.00,436.67 738.55,436.67 740.10,436.67 741.65,436.67 743.20,436.67 744.75,436.67 746.30,436.67 747.85,436.67 749.40,436.67 750.95,436.67 752.50,436.67 754.05,436.67 755.60,436.67 757.15,436.67 758.70,436.67 760.25,436.67 761.80,436.67 763.35,436.67 764.90,436.67 766.45,436.67 768.00,436.67 769.55,436.67 771.10,436.67 772.65,436.67 774.20,436.67 775.75,436.67 777.30,436.67 778.85,436.67 780.40,436.67 781.95,436.67 783.50,436.67 785.05,436.67 786.60,436.67 788.15,436.67 789.70,436.67 791.25,436.67 792.80,436.67 794.35,436.67 795.90,436.67 797.45,436.67 799.00,436.67 800.55,436.67 802.10,436.67 803.65,436.67 805.20,436.67 806.75,436.67 808.30,436.67 809.85,436.67 811.40,436.67 812.95,436.67 814.50,436.67 816.05,436.67 817.60,436.67 819.15,436.67 820.70,436.67 822.25,436.67 823.80,436.67 825.35,436.67 826.90,436.67 828.45,436.67 830.00,500.83" fill="none" stroke="#a96900" stroke-width="3.5" stroke-linecap="round" stroke-linejoin="round" opacity="0.9"/>
<rect x="826" y="158" width="132" height="28" rx="14" fill="#087cf0"/>
<text x="892.0" y="177" class="tiny mono" text-anchor="middle" fill="#ffffff">M3 · verifier</text>
<rect x="968" y="158" width="132" height="28" rx="14" fill="#a96900"/>
<text x="1034.0" y="177" class="tiny mono" text-anchor="middle" fill="#ffffff">M4 · random</text>
<text x="830" y="604" class="small" text-anchor="middle">If formatting alone caused the gain, both curves should rise.</text>
</svg>
